<?xml version="1.0" encoding="UTF-8" standalone="no"?>
<!-- Created with Inkscape (http://www.inkscape.org/) -->

<svg
   xmlns:dc="http://purl.org/dc/elements/1.1/"
   xmlns:cc="http://creativecommons.org/ns#"
   xmlns:rdf="http://www.w3.org/1999/02/22-rdf-syntax-ns#"
   xmlns:svg="http://www.w3.org/2000/svg"
   xmlns="http://www.w3.org/2000/svg"
   xmlns:sodipodi="http://sodipodi.sourceforge.net/DTD/sodipodi-0.dtd"
   xmlns:inkscape="http://www.inkscape.org/namespaces/inkscape"
   width="95.957321mm"
   height="49.872829mm"
   viewBox="0 0 95.957321 49.87283"
   version="1.1"
   id="svg863"
   inkscape:version="0.92.4 (5da689c313, 2019-01-14)"
   sodipodi:docname="codeLogo_enhanced.svg">
  <defs
     id="defs857" />
  <sodipodi:namedview
     id="base"
     pagecolor="#ffffff"
     bordercolor="#666666"
     borderopacity="1.0"
     inkscape:pageopacity="0.0"
     inkscape:pageshadow="2"
     inkscape:zoom="1"
     inkscape:cx="454.15797"
     inkscape:cy="-57.825355"
     inkscape:document-units="mm"
     inkscape:current-layer="layer1"
     showgrid="false"
     fit-margin-top="0.2"
     fit-margin-left="0.2"
     fit-margin-right="0.2"
     fit-margin-bottom="0.2"
     inkscape:window-width="1920"
     inkscape:window-height="1001"
     inkscape:window-x="-9"
     inkscape:window-y="-9"
     inkscape:window-maximized="1" />
  <metadata
     id="metadata860">
    <rdf:RDF>
      <cc:Work
         rdf:about="">
        <dc:format>image/svg+xml</dc:format>
        <dc:type
           rdf:resource="http://purl.org/dc/dcmitype/StillImage" />
        <dc:title></dc:title>
      </cc:Work>
    </rdf:RDF>
  </metadata>
  <g
     inkscape:label="Layer 1"
     inkscape:groupmode="layer"
     id="layer1"
     transform="translate(1.394291,1.0057864)">
    <path
       inkscape:connector-curvature="0"
       d="m 36.259385,48.667043 c -0.572122,0 -1.153237,-0.1153 -1.711185,-0.358974 -2.166377,-0.946361 -3.155529,-3.469529 -2.20917,-5.636178 L 49.671405,2.9902407 C 50.617761,0.82413767 53.140659,-0.16446933 55.30758,0.78107167 57.473957,1.7274297 58.463112,4.2505987 57.516751,6.4172477 L 40.184375,46.098896 c -0.70268,1.608701 -2.274858,2.568147 -3.92499,2.568147 z"
       id="path26-1"
       style="fill:#4d4637;fill-opacity:1;stroke-width:0.27256873" />
    <path
       inkscape:connector-curvature="0"
       d="m 19.138255,47.124572 c -1.095457,0 -2.191183,-0.417846 -3.026876,-1.25354 L 0.059253,29.818912 c -1.671392,-1.671664 -1.671392,-4.382089 0,-6.053753 L 15.897412,7.9270057 c 1.671665,-1.671664 4.382088,-1.671664 6.053752,0 1.671392,1.671665 1.671392,4.3820883 0,6.0537533 L 9.139882,26.792034 22.165403,39.817281 c 1.671392,1.671663 1.671392,4.382087 0,6.053751 -0.835968,0.835694 -1.931694,1.25354 -3.027148,1.25354 z"
       id="path28-4"
       style="fill:#4d4637;fill-opacity:1;stroke-width:0.27256873" />
    <path
       inkscape:connector-curvature="0"
       d="m 70.717528,47.124572 c 1.095457,0 2.191181,-0.417846 3.026875,-1.25354 L 89.79652,29.818912 c 1.67139,-1.671664 1.67139,-4.382089 0,-6.053753 L 73.958369,7.9270057 c -1.671664,-1.671664 -4.382087,-1.671664 -6.053751,0 -1.671392,1.671665 -1.671392,4.3820883 0,6.0537533 L 80.715894,26.792034 67.690379,39.817281 c -1.671388,1.671663 -1.671388,4.382087 0,6.053751 0.835967,0.835694 1.931694,1.25354 3.027149,1.25354 z"
       id="path30-2"
       style="fill:#4d4637;fill-opacity:1;stroke-width:0.27256873" />
    <path
       inkscape:connector-curvature="0"
       d="m 74.030495,45.896326 c 1.095451,0 2.191178,-0.417848 3.026875,-1.253543 l 16.05212,-16.05212 c 1.67139,-1.671664 1.67139,-4.382086 0,-6.053751 L 77.271336,6.6987597 c -1.671664,-1.671664 -4.382087,-1.671664 -6.053751,0 -1.671392,1.671664 -1.671392,4.3820883 0,6.0537523 L 84.02886,25.563788 71.003346,38.589032 c -1.671394,1.671664 -1.671394,4.382087 0,6.053751 0.835967,0.835695 1.931694,1.253543 3.027149,1.253543 z"
       id="path30-7"
       style="fill:#e5d1ab;fill-opacity:1;stroke-width:0.27256873" />
    <path
       inkscape:connector-curvature="0"
       d="m 39.572352,47.438794 c -0.572122,0 -1.153237,-0.115298 -1.711185,-0.358973 -2.166377,-0.94636 -3.155529,-3.469529 -2.20917,-5.636178 L 52.984369,1.7619947 c 0.946359,-2.16610403 3.469257,-3.154711 5.636178,-2.20917003 2.166377,0.946359 3.155527,3.46952803 2.209171,5.63617703 L 43.497342,44.87065 c -0.702683,1.608701 -2.274858,2.568144 -3.92499,2.568144 z"
       id="path26-5"
       style="fill:#e5d1ab;fill-opacity:1;stroke-width:0.27256873" />
    <path
       inkscape:connector-curvature="0"
       d="m 22.451219,45.896326 c -1.095454,0 -2.19118,-0.417848 -3.026876,-1.253543 L 3.372224,28.590663 c -1.671392,-1.671664 -1.671392,-4.382086 0,-6.053751 L 19.210376,6.6987597 c 1.671665,-1.671664 4.382088,-1.671664 6.053754,0 1.671391,1.671664 1.671391,4.3820883 0,6.0537523 L 12.452852,25.563788 25.478368,38.589032 c 1.671391,1.671664 1.671391,4.382087 0,6.053751 -0.835969,0.835695 -1.931695,1.253543 -3.027149,1.253543 z"
       id="path28-43"
       style="fill:#e5d1ab;fill-opacity:1;stroke-width:0.27256873" />
  </g>
</svg>
