<?xml version="1.0" encoding="UTF-8" standalone="no"?>
<svg
   xmlns:dc="http://purl.org/dc/elements/1.1/"
   xmlns:cc="http://creativecommons.org/ns#"
   xmlns:rdf="http://www.w3.org/1999/02/22-rdf-syntax-ns#"
   xmlns:svg="http://www.w3.org/2000/svg"
   xmlns="http://www.w3.org/2000/svg"
   xmlns:sodipodi="http://sodipodi.sourceforge.net/DTD/sodipodi-0.dtd"
   xmlns:inkscape="http://www.inkscape.org/namespaces/inkscape"
   id="Capa_1"
   enable-background="new 0 0 497 497"
   height="512"
   viewBox="0 0 497 497"
   width="512"
   version="1.1"
   sodipodi:docname="webLogo3.svg"
   inkscape:version="0.92.4 (5da689c313, 2019-01-14)">
  <metadata
     id="metadata41">
    <rdf:RDF>
      <cc:Work
         rdf:about="">
        <dc:format>image/svg+xml</dc:format>
        <dc:type
           rdf:resource="http://purl.org/dc/dcmitype/StillImage" />
        <dc:title></dc:title>
      </cc:Work>
    </rdf:RDF>
  </metadata>
  <defs
     id="defs39" />
  <sodipodi:namedview
     pagecolor="#ffffff"
     bordercolor="#666666"
     borderopacity="1"
     objecttolerance="10"
     gridtolerance="10"
     guidetolerance="10"
     inkscape:pageopacity="0"
     inkscape:pageshadow="2"
     inkscape:window-width="1920"
     inkscape:window-height="1001"
     id="namedview37"
     showgrid="false"
     inkscape:zoom="1.3037281"
     inkscape:cx="261.05666"
     inkscape:cy="282.91245"
     inkscape:window-x="-9"
     inkscape:window-y="-9"
     inkscape:window-maximized="1"
     inkscape:current-layer="layer2" />
  <g
     id="g34">
    <path
       d="m497 139.5v268c0 22.09-17.91 40-40 40h-417c-22.09 0-40-17.91-40-40v-268z"
       fill="#f5f5f5"
       id="path2" />
    <path
       d="m497 159.5v-20l-248.5-10-248.5 10v20 248c0 22.09 17.91 40 40 40h20c-22.09 0-40-17.91-40-40v-248z"
       fill="#e6e6e6"
       id="path4" />
    <path
       d="m497 89.5v50h-497v-50c0-22.09 17.91-40 40-40h417c22.09 0 40 17.91 40 40z"
       fill="#50758d"
       id="path6"
       style="fill:#e5d1ab;fill-opacity:1" />
    <g
       fill="#2b597f"
       id="g16">
      <path
         d="m474.5 94.5c0-12.406-10.093-22.5-22.5-22.5h-213c-6.385 0-12.152 2.677-16.251 6.963-4.767 4.757-2.529 2.519-7.286 7.286-4.286 4.099-6.963 9.866-6.963 16.251 0 12.406 10.093 22.5 22.5 22.5h213c6.385 0 12.152-2.677 16.251-6.963 4.767-4.757 2.529-2.519 7.286-7.286 4.286-4.099 6.963-9.866 6.963-16.251z"
         id="path8"
         style="fill:#4d4637;fill-opacity:1" />
      <path
         d="m68.25 94.25c0-12.406-10.093-22.5-22.5-22.5-6.385 0-12.152 2.677-16.251 6.963-4.767 4.757-2.529 2.519-7.286 7.286-4.286 4.099-6.963 9.866-6.963 16.251 0 12.406 10.093 22.5 22.5 22.5 6.385 0 12.152-2.677 16.251-6.963 4.767-4.757 2.529-2.519 7.286-7.286 4.286-4.099 6.963-9.866 6.963-16.251z"
         id="path10"
         style="fill:#4d4637;fill-opacity:1" />
      <path
         d="m132.5 94.25c0-12.406-10.093-22.5-22.5-22.5-6.385 0-12.152 2.677-16.251 6.963-4.767 4.757-2.529 2.519-7.286 7.286-4.286 4.099-6.963 9.866-6.963 16.251 0 12.406 10.093 22.5 22.5 22.5 6.385 0 12.152-2.677 16.251-6.963 4.767-4.757 2.529-2.519 7.286-7.286 4.286-4.099 6.963-9.866 6.963-16.251z"
         id="path12"
         style="fill:#4d4637;fill-opacity:1" />
      <path
         d="m196.5 94.25c0-12.406-10.093-22.5-22.5-22.5-6.385 0-12.152 2.677-16.251 6.963-4.767 4.757-2.529 2.519-7.286 7.286-4.286 4.099-6.963 9.866-6.963 16.251 0 12.406 10.093 22.5 22.5 22.5 6.385 0 12.152-2.677 16.251-6.963 4.767-4.757 2.529-2.519 7.286-7.286 4.286-4.099 6.963-9.866 6.963-16.251z"
         id="path14"
         style="fill:#4d4637;fill-opacity:1" />
    </g>
    <path
       d="m45.75 116.75c-12.407 0-22.5-10.094-22.5-22.5s10.093-22.5 22.5-22.5 22.5 10.094 22.5 22.5-10.093 22.5-22.5 22.5z"
       fill="#fd646f"
       id="path18"
       style="fill:#fdffff;fill-opacity:1" />
    <path
       d="m110 117c-12.407 0-22.5-10.094-22.5-22.5s10.093-22.5 22.5-22.5 22.5 10.094 22.5 22.5-10.093 22.5-22.5 22.5z"
       fill="#ffc682"
       id="path20"
       style="fill:#646464;fill-opacity:1" />
    <path
       d="m174 117c-12.407 0-22.5-10.094-22.5-22.5s10.093-22.5 22.5-22.5 22.5 10.094 22.5 22.5-10.093 22.5-22.5 22.5z"
       fill="#93ddb7"
       id="path22"
       style="fill:#969696;fill-opacity:1" />
    <path
       d="m452 117h-213c-12.407 0-22.5-10.094-22.5-22.5s10.093-22.5 22.5-22.5h213c12.407 0 22.5 10.094 22.5 22.5s-10.093 22.5-22.5 22.5z"
       fill="#f5f5f5"
       id="path24" />
    <g
       fill="#50758d"
       id="g32" />
  </g>
  <g
     inkscape:groupmode="layer"
     id="layer1"
     inkscape:label="Layer 1" />
  <g
     inkscape:groupmode="layer"
     id="layer2"
     inkscape:label="Layer 2" />
</svg>
